<?xml version="1.0" standalone="no"?><!DOCTYPE svg PUBLIC "-//W3C//DTD SVG 1.1//EN" "http://www.w3.org/Graphics/SVG/1.1/DTD/svg11.dtd"><svg t="1748074480514" class="icon" viewBox="0 0 1024 1024" version="1.1" xmlns="http://www.w3.org/2000/svg" p-id="14224" xmlns:xlink="http://www.w3.org/1999/xlink" width="200" height="200"><path d="M390.1 649.1c-2.1-3.5-3.3-7.5-3.3-11.9 0-12.6 10.2-22.8 22.8-22.8 9.8 0 18.1 6.1 21.3 14.8 16.5 35.9 43.5 53.8 81.1 53.8 37.7 0 64.8-18 81.2-54.1 3.3-8.5 11.6-14.5 21.2-14.5 12.6 0 22.8 10.2 22.8 22.8 0 4.5-1.3 8.8-3.6 12.3-29.9 52.8-70.5 79.2-121.6 79.2-51.5 0-92.2-26.5-121.9-79.6z m300.4-170.5c-72.3 0-132.8-51.2-135.3-53.4-9.9-8.5-11.6-23.5-3.9-34.1 2.3-3.1 57.1-77.3 136.9-86.8 79.4-9.4 150.1 50 152.9 52.4 9.9 8.5 11.6 23.4 3.9 34.1-2.3 3.1-57.1 77.3-136.9 86.8-6 0.7-11.8 1-17.6 1z m3.4-124.5c-36.7 4.3-67.7 29.3-85.8 47.5 19.4 11.9 50 26.8 82.4 26.8 3.9 0 7.9-0.2 11.8-0.7 36.7-4.3 67.7-29.3 85.9-47.5-21.8-13.4-57.5-30.4-94.3-26.1z m-221.2 37c7.7 10.6 6 25.5-3.9 34.1-2.5 2.2-63 53.4-135.3 53.4-5.8 0-11.7-0.3-17.6-1-79.9-9.5-134.6-83.7-136.9-86.8-7.7-10.6-6-25.5 3.9-34.1 2.7-2.4 73.5-61.9 152.9-52.3 79.9 9.4 134.6 83.5 136.9 86.7z m-151 36.6c36.7 4.3 72.4-12.7 94.3-26.1-18.1-18.1-49.2-43.1-85.8-47.4-36.5-4.2-72.4 12.7-94.2 26.1 18 18.1 49.1 43.1 85.7 47.4z m634.3-312c0.2 20.4 1.6 501.7-207.8 716.4-65.5 67.1-145 101.1-236.2 101.1-91.2 0-170.7-34-236.1-101.2C66.4 617.4 67.9 136 68 115.7c0.1-7.4 3.3-14.3 8.8-19 5.5-4.7 12.8-6.7 20-5.5 2.1 0.3 217.7 36.8 415.2 36.8 182.3 0 413.2-36.6 415.5-37 7.1-1.1 14.3 0.9 19.8 5.6 5.5 4.8 8.6 11.7 8.7 19.1zM713.1 796.8c167-171.2 190-545.1 193.1-651.8-68.7 9.9-246.7 33.3-394.2 33.3-158.3 0-327.6-23-394.1-33 3.1 107 26.2 480.5 193.1 651.6 55.9 57.3 123.5 86.3 201.1 86.3s145.1-29.2 201-86.4z" p-id="14225"></path></svg>