<?xml version="1.0" standalone="no"?><!DOCTYPE svg PUBLIC "-//W3C//DTD SVG 1.1//EN" "http://www.w3.org/Graphics/SVG/1.1/DTD/svg11.dtd"><svg t="1748074279720" class="icon" viewBox="0 0 1024 1024" version="1.1" xmlns="http://www.w3.org/2000/svg" p-id="11633" xmlns:xlink="http://www.w3.org/1999/xlink" width="200" height="200"><path d="M840 265.6l-33.2-123.6c-4.4-16.8-21.6-26.8-38.4-22.4h-0.8l-247.2 66 196 113.2 123.6-33.2zM438 373.6L242.4 260.4l-92.8 24.8c-17.2 4.4-27.2 22-22.8 39.2L160 448l278-74.4z" opacity=".2" p-id="11634"></path><path d="M832 864H192c-35.2 0-64-28.8-64-64v-352c0-17.6 14.4-32 32-32h704c17.6 0 32 14.4 32 32v352c0 35.2-28.8 64-64 64zM192 480v320h640v-320H192z" p-id="11635"></path><path d="M160 480c-14 0-27.2-9.6-30.8-23.6L96 332.8c-9.2-34.4 11.6-69.6 45.6-78.4l618-165.6 0.8-0.4c16.4-4.4 33.6-2 48 6.8 14.8 8.4 25.2 22.4 29.6 38.8l33.2 123.2c2 8 1.2 16.8-3.2 24.4-4.4 7.2-11.2 12.8-19.6 14.8l-680 182.4c-2.8 0.8-5.6 1.2-8.4 1.2z m616-329.6L158 316l24.8 92.8 618-166-24.8-92.4z" p-id="11636"></path><path d="M716.4 330.8c-5.6 0-10.8-1.2-16-4.4l-196-113.2c-15.2-8.8-20.4-28.4-11.6-43.6 8.8-15.2 28.4-20.4 43.6-11.6l196 113.2c15.2 8.8 20.4 28.4 11.6 43.6-6 10.4-16.4 16-27.6 16zM438 405.6c-5.6 0-10.8-1.2-16-4.4L226.4 288c-15.2-8.8-20.4-28.4-11.6-43.6 8.8-15.2 28.4-20.4 43.6-11.6l195.6 113.2c15.2 8.8 20.4 28.4 11.6 43.6-6 10.4-16.4 16-27.6 16z" p-id="11637"></path></svg>