<?xml version="1.0" standalone="no"?><!DOCTYPE svg PUBLIC "-//W3C//DTD SVG 1.1//EN" "http://www.w3.org/Graphics/SVG/1.1/DTD/svg11.dtd"><svg t="1748076741189" class="icon" viewBox="0 0 1024 1024" version="1.1" xmlns="http://www.w3.org/2000/svg" p-id="2400" xmlns:xlink="http://www.w3.org/1999/xlink" width="200" height="200"><path d="M861.4 879h-351c-203.2 0-368.5-165.3-368.5-368.5S307.2 142 510.4 142s368.5 165.3 368.5 368.5c0 107.8-47 209.9-129 280-7.4 6.3-18.5 5.4-24.7-1.9-6.3-7.4-5.4-18.4 1.9-24.7 74.2-63.5 116.7-155.8 116.7-253.4 0-183.8-149.6-333.4-333.4-333.4S177 326.7 177 510.5s149.6 333.4 333.4 333.4h351c9.7 0 17.5 7.9 17.5 17.5s-7.8 17.6-17.5 17.6z" p-id="2401"></path><path d="M510.4 510.5m-52.6 0a52.6 52.6 0 1 0 105.2 0 52.6 52.6 0 1 0-105.2 0Z" p-id="2402"></path><path d="M317.4 599.5c-48.4 0-87.7-39.4-87.7-87.7S269 424 317.4 424s87.7 39.4 87.7 87.7-39.3 87.8-87.7 87.8z m0-140.4c-29 0-52.6 23.6-52.6 52.6s23.6 52.6 52.6 52.6 52.6-23.6 52.6-52.6-23.6-52.6-52.6-52.6zM703.4 599.5c-48.4 0-87.7-39.4-87.7-87.7s39.4-87.7 87.7-87.7c48.4 0 87.7 39.4 87.7 87.7s-39.3 87.7-87.7 87.7z m0-140.4c-29 0-52.6 23.6-52.6 52.6s23.6 52.6 52.6 52.6 52.6-23.6 52.6-52.6c0.1-29-23.5-52.6-52.6-52.6zM510.4 792.5c-48.4 0-87.7-39.4-87.7-87.7 0-48.4 39.4-87.7 87.7-87.7s87.7 39.4 87.7 87.7c0 48.3-39.3 87.7-87.7 87.7z m0-140.4c-29 0-52.6 23.6-52.6 52.6s23.6 52.6 52.6 52.6 52.6-23.6 52.6-52.6-23.6-52.6-52.6-52.6zM510.4 406.4c-48.4 0-87.7-39.4-87.7-87.7S462 231 510.4 231s87.7 39.4 87.7 87.7-39.3 87.7-87.7 87.7z m0-140.3c-29 0-52.6 23.6-52.6 52.6s23.6 52.6 52.6 52.6 52.6-23.6 52.6-52.6-23.6-52.6-52.6-52.6z" p-id="2403"></path></svg>