<?xml version="1.0" standalone="no"?><!DOCTYPE svg PUBLIC "-//W3C//DTD SVG 1.1//EN" "http://www.w3.org/Graphics/SVG/1.1/DTD/svg11.dtd"><svg t="1748074315529" class="icon" viewBox="0 0 1024 1024" version="1.1" xmlns="http://www.w3.org/2000/svg" p-id="12892" xmlns:xlink="http://www.w3.org/1999/xlink" width="200" height="200"><path d="M635.904 480.256h200.192c50.688 0 92.16-41.472 92.16-92.16V187.904c0-50.688-41.472-92.16-92.16-92.16h-200.192c-50.688 0-92.16 41.472-92.16 92.16v200.192c0.512 50.688 41.472 92.16 92.16 92.16z m-27.648-292.352c0-15.36 12.8-28.16 28.16-28.16h200.192c15.36 0 28.16 12.8 28.16 28.16v200.192c0 15.36-12.8 28.16-28.16 28.16h-200.192c-15.36 0-28.16-12.8-28.16-28.16V187.904zM388.096 544.256H187.904c-50.688 0-92.16 41.472-92.16 92.16v200.192c0 50.688 41.472 92.16 92.16 92.16h200.192c50.688 0 92.16-41.472 92.16-92.16v-200.192c0-51.2-41.472-92.16-92.16-92.16z m28.16 291.84c0 15.36-12.8 28.16-28.16 28.16H187.904c-15.36 0-28.16-12.8-28.16-28.16v-200.192c0-15.36 12.8-28.16 28.16-28.16h200.192c15.36 0 28.16 12.8 28.16 28.16v200.192zM388.096 96.256H187.904c-50.688 0-92.16 41.472-92.16 92.16v200.192c0 50.688 41.472 92.16 92.16 92.16h200.192c50.688 0 92.16-41.472 92.16-92.16V187.904c0-50.688-41.472-91.648-92.16-91.648z m28.16 291.84c0 15.36-12.8 28.16-28.16 28.16H187.904c-15.36 0-28.16-12.8-28.16-28.16V187.904c0-15.36 12.8-28.16 28.16-28.16h200.192c15.36 0 28.16 12.8 28.16 28.16v200.192zM923.648 870.912l-28.16-28.16c20.48-30.72 32.768-67.584 32.768-107.008 0-105.984-86.016-192-192-192s-192 86.016-192 192 86.016 192 192 192c43.008 0 82.944-14.336 115.2-38.4l27.136 27.136c12.288 12.288 32.768 12.288 45.056 0a32.768 32.768 0 0 0 0-45.568z m-315.392-134.656c0-70.656 57.344-128 128-128s128 57.344 128 128-57.344 128-128 128-128-57.856-128-128z" p-id="12893"></path></svg>